<?xml version="1.0" encoding="utf-8"?><svg xmlns="http://www.w3.org/2000/svg" xmlns:xlink="http://www.w3.org/1999/xlink"><symbol viewBox="0 0 20 18" id="icons--basket" xmlns="http://www.w3.org/2000/svg"><path fill-rule="evenodd" clip-rule="evenodd" d="M18.147 7.055h-3.68l-.512 3.95h2.967l1.225-3.95zm-2.922 9.422l1.225-3.95h-2.692l-.513 3.95h1.98zM3.55 12.527l1.225 3.95h2.113l-.512-3.95H3.55zM1.853 7.055l1.225 3.95h3.1l-.512-3.95H1.853zm11.021 0H7.26l.513 3.95h4.59l.512-3.95h-.001zm-1.223 9.422l.513-3.95H7.97l.513 3.95h3.17-.002zm8.315-9.966l-3.31 10.674a1.18 1.18 0 01-1.137.815H4.481c-.524 0-.987-.331-1.137-.815L.034 6.51c-.152-.488.228-.98.757-.98H19.21c.529 0 .909.492.757.98l-.001.001zm-7.089-2.11v-.107c0-1.528-1.29-2.77-2.877-2.77-1.586 0-2.877 1.242-2.877 2.77v.107H5.542v-.107C5.542 1.927 7.542 0 10 0c2.459 0 4.459 1.927 4.459 4.294v.107h-1.582z"/></symbol><symbol viewBox="0 0 27 27" id="icons--box" xmlns="http://www.w3.org/2000/svg"><path d="M2.078 10.892l2.35-1.03A.824.824 0 004.846 8.8a.773.773 0 00-1.025-.434l-.583.256c1.787-4.234 5.829-6.99 10.316-6.99 5.138 0 9.617 3.6 10.905 8.76a.781.781 0 00.954.583.816.816 0 00.562-.99C24.509 4.105 19.399 0 13.553 0 8.42 0 3.793 3.178 1.772 8.048l-.268-.659a.772.772 0 00-1.025-.433.824.824 0 00-.417 1.064l.991 2.438a.773.773 0 001.025.434zm24.86 8.088l-.991-2.438a.772.772 0 00-1.025-.434l-2.35 1.03a.824.824 0 00-.418 1.063.773.773 0 001.025.434l.584-.256c-1.788 4.234-5.83 6.99-10.317 6.99-5.138 0-9.618-3.6-10.905-8.76a.781.781 0 00-.954-.583.816.816 0 00-.562.99C2.491 22.895 7.601 27 13.446 27c5.134 0 9.762-3.178 11.782-8.048l.268.659a.772.772 0 001.025.433.823.823 0 00.417-1.064z"/><path d="M14.351 9.626L15 10V7h-2v3l.644-.371a.696.696 0 01.707-.003z"/><path d="M10.49 10.825L10.487 7H7.77a.772.772 0 00-.77.776v10.448c0 .429.344.776.77.776h10.46c.426 0 .77-.347.77-.776V7.776A.772.772 0 0018.23 7h-2.717v3.825a.77.77 0 01-1.177.658L13 10.806l-1.401.71c-.515.26-1.11-.129-1.109-.691z"/></symbol><symbol viewBox="0 0 27 27" id="icons--check" xmlns="http://www.w3.org/2000/svg"><path fill-rule="evenodd" clip-rule="evenodd" d="M0 13.5C0 6.056 6.056 0 13.5 0S27 6.056 27 13.5 20.944 27 13.5 27 0 20.944 0 13.5zm2.455 0c0 6.09 4.954 11.046 11.045 11.046 6.09 0 11.046-4.956 11.046-11.046 0-6.09-4.956-11.045-11.046-11.045C7.41 2.455 2.455 7.41 2.455 13.5z"/><path d="M18.951 9.35l-6.79 6.764-3.112-3.1a1.204 1.204 0 00-1.697 0 1.192 1.192 0 000 1.69l3.96 3.946a1.203 1.203 0 001.697 0l7.64-7.609a1.192 1.192 0 000-1.69 1.204 1.204 0 00-1.698 0z"/></symbol><symbol viewBox="0 0 33 33" id="icons--facebook" xmlns="http://www.w3.org/2000/svg"><path d="M14.556 12.889v1.444H13V16.5h1.556V23h3.11v-6.5h2.07L20 14.333h-2.333V13.07c0-.585.062-.895 1.034-.895H20V10h-2.084c-2.49 0-3.36 1.083-3.36 2.889z"/><path fill-rule="evenodd" clip-rule="evenodd" d="M0 16.5C0 7.387 7.387 0 16.5 0S33 7.387 33 16.5 25.613 33 16.5 33 0 25.613 0 16.5zm1.5 0c0 8.284 6.716 15 15 15 8.284 0 15-6.716 15-15 0-8.284-6.716-15-15-15-8.284 0-15 6.716-15 15z"/></symbol><symbol viewBox="0 0 27 16" id="icons--fast-delivery" xmlns="http://www.w3.org/2000/svg"><path fill-rule="evenodd" clip-rule="evenodd" d="M6.359 4.858c0-.518-.333-.74-.791-.74H1.582a.791.791 0 010-1.583h.95V.792A.79.79 0 013.322 0h14.344v4.752c0 .438.354.793.791.793h6.103c.166.017 2.44.242 2.44 2.481v4.753a.792.792 0 01-.791.792h-1.38A3.035 3.035 0 0121.86 16a3.035 3.035 0 01-2.972-2.429h-8.032A3.034 3.034 0 017.884 16a3.034 3.034 0 01-2.972-2.429h-1.59a.792.792 0 01-.79-.792v-2.376H.79a.791.791 0 010-1.585h7.122a.791.791 0 10-.003-1.584H.791a.791.791 0 010-1.584H5.57a.792.792 0 00.789-.792zm17.248-.898C22.484 2.074 21.59.703 19.248.16v3.8h4.36zm-.723 7.977a1.454 1.454 0 010 2.054c-.911.912-2.476.263-2.476-1.027s1.565-1.94 2.476-1.027zM8.909 13.99a1.454 1.454 0 000-2.054c-.91-.912-2.475-.263-2.475 1.027s1.564 1.939 2.475 1.027z"/></symbol><symbol viewBox="0 0 30 30" id="icons--icons" xmlns="http://www.w3.org/2000/svg"><path fill-rule="evenodd" clip-rule="evenodd" d="M24.237 5.724h-4.658a.792.792 0 01-.79-.79V1.105c0-.434.356-.79.79-.79h9.276c.434 0 .79.356.79.79v9.277a.792.792 0 01-.79.789h-3.829a.792.792 0 01-.79-.79V5.725zm3.829-3.83h-7.698v2.25h4.658c.434 0 .79.356.79.79v4.658h2.25V1.895zm-17.645 27.79H1.145c-.435 0-.79-.355-.79-.75v-9.276c0-.434.355-.79.79-.79h3.829c.434 0 .79.356.79.79v4.618h4.657c.434 0 .79.356.79.79v3.829c0 .434-.356.79-.79.79zm-6.237-9.237h-2.25v7.698h7.698v-2.25H4.974a.792.792 0 01-.79-.79v-4.658z"/><path d="M4.974 13.855c.434 0 .79-.355.79-.79v-7.34h7.38c.435 0 .79-.356.79-.79a.792.792 0 00-.79-.79h-8.17a.792.792 0 00-.79.79v8.092c0 .474.355.83.79.83zm11.921 12h8.17c.435 0 .79-.355.79-.79v-8.091a.792.792 0 00-.79-.79.792.792 0 00-.789.79v7.302h-7.381a.792.792 0 00-.79.79c0 .434.355.79.79.79z"/></symbol><symbol viewBox="0 0 30 30" id="icons--icons2" xmlns="http://www.w3.org/2000/svg"><path fill-rule="evenodd" clip-rule="evenodd" d="M3.142 14.26L.741 13.023a.995.995 0 01-.491-1.171l.963-2.963a.995.995 0 011.074-.672l2.767.424c.253-.39.53-.766.828-1.126L4.626 5.018a.997.997 0 01.3-1.241l2.511-1.825a1.007 1.007 0 011.273.095l1.963 1.946c.445-.18.899-.334 1.359-.46l.441-2.705A.997.997 0 0113.446 0h3.107c.484 0 .902.362.972.84l.425 2.592c.501.12.996.274 1.477.459l1.86-1.842a1.01 1.01 0 011.256-.11l2.529 1.837a1 1 0 01.3 1.244l-1.163 2.31c.34.41.648.838.924 1.28l2.564-.392a.991.991 0 011.087.663l.958 2.961a.98.98 0 01-.49 1.184L26.88 14.25a12.23 12.23 0 01-.024 1.487l2.404 1.242c.427.22.634.73.482 1.187l-.955 2.944a.99.99 0 01-1.075.674l-2.766-.424c-.253.387-.53.763-.828 1.123l1.256 2.502a.983.983 0 01-.287 1.228l-2.528 1.836a1.008 1.008 0 01-1.275-.103l-1.96-1.938a12.44 12.44 0 01-1.355.46l-.446 2.707a.977.977 0 01-.967.824L13.447 30a.992.992 0 01-.97-.801l-.43-2.632a11.765 11.765 0 01-1.474-.457l-1.86 1.84a1.023 1.023 0 01-1.27.103l-2.518-1.829a.997.997 0 01-.299-1.24l1.164-2.312a11.361 11.361 0 01-.925-1.283l-2.566.393a1 1 0 01-1.085-.67l-.96-2.951a.991.991 0 01.482-1.18l2.383-1.232a10.561 10.561 0 01-.011-.765c.005-.253.017-.493.034-.724zm2.016-4.006L2.56 9.855l-.647 1.994 2.285 1.177c.367.188.595.611.551 1.027a10.77 10.77 0 00-.032 1.938c.032.408-.194.813-.562 1l-2.243 1.16.649 1.994 2.428-.372a1.054 1.054 0 011.04.482 9.93 9.93 0 001.185 1.65c.28.332.335.79.15 1.155l-1.1 2.184 1.696 1.231 1.758-1.738a1.02 1.02 0 01.735-.299c.14 0 .274.027.399.081a10.2 10.2 0 001.887.585c.407.077.745.428.809.852l.403 2.465h2.096l.422-2.556c.053-.397.381-.754.794-.845a10.918 10.918 0 001.773-.602.996.996 0 01.41-.086c.28 0 .546.11.733.302l1.862 1.84 1.696-1.232-1.191-2.371a1.056 1.056 0 01.15-1.153 10.79 10.79 0 001.095-1.486 1.066 1.066 0 011.025-.49l2.624.403.647-1.994-2.283-1.179a1.057 1.057 0 01-.554-1.026 10.052 10.052 0 00.033-1.931c-.03-.402.197-.813.551-1.002l2.253-1.161-.647-1.996-2.43.372a1.055 1.055 0 01-1.05-.503 10.124 10.124 0 00-1.173-1.63c-.272-.29-.341-.769-.153-1.147l1.103-2.19-1.696-1.232-1.755 1.739a1.078 1.078 0 01-1.135.218 10.142 10.142 0 00-1.887-.585 1.047 1.047 0 01-.808-.821l-.409-2.498H13.95l-.417 2.556c-.055.388-.375.74-.775.841-.616.149-1.215.352-1.788.606a1.085 1.085 0 01-1.134-.195L7.958 3.525 6.262 4.757 7.456 7.13c.183.37.12.84-.15 1.147-.411.469-.78.97-1.094 1.489a1.057 1.057 0 01-1.054.488z"/><path fill-rule="evenodd" clip-rule="evenodd" d="M22.572 15.165c-.149 4.088-3.6 7.414-7.692 7.415a7.411 7.411 0 01-5.325-2.223 7.418 7.418 0 01-2.135-5.369c.074-4.172 3.526-7.566 7.696-7.566 4.106 0 7.453 3.338 7.461 7.44 0 .086-.002.22-.005.303zm-1.574-.301C20.992 11.632 18.354 9 15.116 9c-3.315 0-6.059 2.698-6.117 6.014a5.853 5.853 0 001.682 4.235 5.843 5.843 0 004.2 1.751c3.252 0 5.995-2.645 6.113-5.894.003-.068.004-.175.004-.243z"/></symbol><symbol viewBox="0 0 35 28" id="icons--icons3" xmlns="http://www.w3.org/2000/svg"><path fill-rule="evenodd" clip-rule="evenodd" d="M17 27.726l.278.164.278-.165c.005 0 .051-.021.136-.06.816-.38 5.185-2.41 9.92-2.41 1.918 0 5.204.41 6.1.521l.232.028.667.165V.659l-.444-.11C34.056.494 31.333 0 27.61 0c-4.777 0-9.11 1.922-10.277 2.47-1-.603-4.5-2.47-9.055-2.47C6.222 0 3 .165.444.549L0 .604v25.365l.667-.165c1.166-.275 5.889-.55 7.61-.55 4.419 0 7.93 2.018 8.606 2.407.072.042.112.064.117.064zm.333-1.098c-1-.605-4.555-2.471-9.055-2.471-1.39 0-5.278.22-7.167.494V1.537c2.389-.33 5.333-.439 7.167-.439 4.47 0 7.942 2.02 8.607 2.407.07.04.11.064.115.064l.278.164.278-.164c.005 0 .052-.022.138-.062.828-.38 5.236-2.409 9.917-2.409 2.778 0 5 .275 5.889.44V24.65c-1.278-.165-4.056-.494-5.889-.494-4.833 0-9.111 1.921-10.278 2.47z"/><path fill-rule="evenodd" clip-rule="evenodd" d="M14.722 7.906l.5.22.445-.989-.5-.22C13.61 6.26 11.11 5.49 8.277 5.49c-1.555 0-3.388.11-5 .22l-.555.055.111 1.098.556-.055c1.555-.165 3.389-.22 4.889-.22 2.666 0 5 .714 6.444 1.318zm4.611-.824l.39 1.044.5-.165c1.777-.659 4.5-1.373 7.332-1.373 1.5 0 3.945.22 3.945.22l.556.055.11-1.098-.555-.055c-.111-.055-2.5-.22-4.056-.22-3 0-5.888.769-7.722 1.428l-.5.164zm-4.611 3.569l.5.22.445-.989-.5-.22c-1.556-.658-4.056-1.427-6.89-1.427-1.555 0-3.388.11-5 .22l-.555.055.111 1.098.556-.055c1.555-.165 3.389-.22 4.889-.22 2.666 0 5 .714 6.444 1.318zm4.611-.824l.39 1.044.5-.165c1.777-.659 4.5-1.373 7.332-1.373 1.5 0 3.945.22 3.945.22l.556.055.11-1.098-.555-.055c-.111-.055-2.5-.22-4.056-.22-3 0-5.888.769-7.722 1.428l-.5.164zm-4.611 3.569l.5.22.445-.989-.5-.22c-1.556-.658-4.056-1.427-6.89-1.427-1.555 0-3.388.11-5 .22l-.555.055.111 1.098.556-.055c1.555-.165 3.389-.22 4.889-.22 2.666 0 5 .714 6.444 1.318zm4.611-.823l.39 1.043.5-.165c1.777-.659 4.5-1.373 7.332-1.373 1.5 0 3.945.22 3.945.22l.556.055.11-1.098-.555-.055c-.111-.055-2.5-.22-4.056-.22-3 0-5.888.769-7.722 1.428l-.5.165zm-4.611 4.117l.5.22.445-.988-.5-.22c-1.556-.659-4.056-1.428-6.89-1.428-1.555 0-3.388.11-5 .22l-.555.055.111 1.098.556-.055c1.555-.165 3.389-.22 4.889-.22 2.666 0 5 .714 6.444 1.318zm4.611-.823l.39 1.043.5-.165c1.777-.659 4.5-1.373 7.332-1.373 1.5 0 3.945.22 3.945.22l.556.055.11-1.098-.555-.055c-.111-.055-2.5-.22-4.056-.22-3 0-5.888.77-7.722 1.428l-.5.165zm-4.611 4.117l.5.22.445-.988-.5-.22c-1.556-.659-4.056-1.427-6.89-1.427-1.555 0-3.388.11-5 .22l-.555.054.111 1.098.556-.055c1.555-.164 3.389-.22 4.889-.22 2.666 0 5 .714 6.444 1.318zm4.611-.823l.39 1.043.5-.165c1.777-.659 4.5-1.372 7.332-1.372h.556v-1.098h-.556c-3 0-5.888.768-7.722 1.427l-.5.165z"/></symbol><symbol viewBox="0 0 33 33" id="icons--instagram" xmlns="http://www.w3.org/2000/svg"><path fill-rule="evenodd" clip-rule="evenodd" d="M0 16.5C0 7.387 7.387 0 16.5 0S33 7.387 33 16.5 25.613 33 16.5 33 0 25.613 0 16.5zm1.5 0c0 8.284 6.716 15 15 15 8.284 0 15-6.716 15-15 0-8.284-6.716-15-15-15-8.284 0-15 6.716-15 15z"/><path fill-rule="evenodd" clip-rule="evenodd" d="M12 9h9a3 3 0 013 3v9a3 3 0 01-3 3h-9a3 3 0 01-3-3v-9a3 3 0 013-3zm9.75 2.25H19.5v2.25h2.25v-2.25zM16.5 13.5a3 3 0 110 6 3 3 0 010-6zm4.5 9a1.5 1.5 0 001.5-1.5v-5.25h-1.575a4.442 4.442 0 010 1.631 4.5 4.5 0 01-8.85-1.631H10.5V21a1.5 1.5 0 001.5 1.5h9z"/></symbol><symbol viewBox="0 0 20 14" id="icons--toggle" xmlns="http://www.w3.org/2000/svg"><path fill-rule="evenodd" clip-rule="evenodd" d="M0 6h20v2H0V6zm0 6h20v2H0v-2zM0 0h20v2H0V0z"/></symbol><symbol viewBox="0 0 30 29" id="icons--waranty" xmlns="http://www.w3.org/2000/svg"><path fill-rule="evenodd" clip-rule="evenodd" d="M29.1 5.151c.4.07.705.398.768.802.026.135.483 3.34-.47 7.368-.564 2.373-1.504 4.553-2.798 6.458-1.619 2.385-3.79 4.36-6.449 5.86a.942.942 0 01-.933.007c-.159-.09-.317-.18-.476-.276v2.668a.956.956 0 01-.952.962H.952A.956.956 0 010 28.038V13.872c0-.532.425-.961.952-.961h8.936c-.83-3.83-.407-6.822-.387-6.964a.949.949 0 01.768-.802l.571-.103A14.007 14.007 0 0018.964.335a.94.94 0 011.34-.102l.032.031a.784.784 0 01.07.071 13.983 13.983 0 008.123 4.714l.571.102zm-18.704 9.69H1.904v1.943h9.222a18.25 18.25 0 01-.73-1.943zm-8.492 3.867h4.748v8.375H1.904v-8.375zm6.652 0v8.375h1.624v-8.375H8.556zm8.282 8.375h-4.754v-8.375h.007c.216.372.438.73.679 1.083a18.432 18.432 0 004.068 4.297v2.995zm8.156-8.343c1.161-1.706 2.012-3.655 2.526-5.79.476-1.976.654-4.015.527-6.042a15.859 15.859 0 01-8.365-4.527 15.926 15.926 0 01-8.366 4.527 20.78 20.78 0 00.527 6.041c.514 2.136 1.365 4.085 2.526 5.79 1.352 1.989 3.136 3.656 5.313 4.964 2.177-1.308 3.96-2.975 5.312-4.963z"/><path d="M23.479 8.102c-.463-.241-1.025-.039-1.256.444l-2.75 5.797-2.862-3.094a.91.91 0 00-1.324-.026 1.01 1.01 0 00-.025 1.384l3.786 4.093c.175.189.425.3.675.3a.924.924 0 00.837-.548l3.337-7.044a.982.982 0 00-.418-1.306z"/></symbol><symbol viewBox="0 0 33 33" id="icons--youtube" xmlns="http://www.w3.org/2000/svg"><path fill-rule="evenodd" clip-rule="evenodd" d="M16.662 13h-.332c-.727-.004-1.317-.489-1.33-1.093v-1.8C15.005 9.493 15.602 9 16.338 9h.332c.727.004 1.317.489 1.33 1.093v1.8c-.005.613-.602 1.107-1.338 1.107zM16.5 9.607c-.277 0-.502.187-.503.418v1.936c0 .231.225.418.503.418.277 0 .503-.187.503-.418v-1.936c0-.23-.225-.417-.503-.418z"/><path d="M12.438 13h1.198v-2.482L15 7h-1.116l-.826 2.335L12.23 7H11l1.454 3.518L12.438 13zm6.32 0c.476-.038.922-.21 1.264-.486v.419H21V9h-.978v3.049s-.334.324-.652.324-.335-.21-.335-.21V9H18v3.46c.056.31.379.54.758.54zm-.258 6a.773.773 0 00-.5.197v2.631c.128.111.31.174.5.172.5 0 .5-.439.5-.439V19.44s-.089-.44-.5-.44z"/><path fill-rule="evenodd" clip-rule="evenodd" d="M0 16.5C0 7.387 7.387 0 16.5 0S33 7.387 33 16.5 25.613 33 16.5 33 0 25.613 0 16.5zm1.5 0c0 8.284 6.716 15 15 15 8.284 0 15-6.716 15-15 0-8.284-6.716-15-15-15-8.284 0-15 6.716-15 15z"/><path d="M21.5 19c-.5 0-.5.437-.5.437V20h1v-.563S22 19 21.5 19z"/><path fill-rule="evenodd" clip-rule="evenodd" d="M22.405 14.149h-.055S19.435 14 16.5 14c-2.936 0-5.865.142-5.865.142-1.28-.039-2.352.885-2.394 2.065a.865.865 0 00-.001.072c-.148.896-.228 1.8-.24 2.707.01.915.09 1.83.24 2.735-.001 1.18 1.036 2.137 2.316 2.138l.079-.001S13.517 24 16.5 24s5.865-.142 5.865-.142c1.28.039 2.352-.885 2.394-2.065l.002-.072c.147-.906.227-1.82.239-2.735a17.92 17.92 0 00-.24-2.735c-.02-1.18-1.075-2.121-2.355-2.102zm-9.375 2.387h-1.166v5.54h-1.152v-5.54H9.545v-.912h3.509l-.024.912zm2.071 5.54h.966l.031-4.842h-.958v3.931s-.325.35-.641.35c-.317 0-.317-.214-.317-.214v-4.067h-.997v4.351c.05.329.36.57.719.563a2.1 2.1 0 001.197-.491v.42zm3.833.072a1.324 1.324 0 01-1.035-.47v.399h-1.044v-6.453h1.036v2.094a1.595 1.595 0 011.035-.477c.642 0 .881.491.881 1.125l.008 2.657s0 1.125-.88 1.125zm2.635-2.293h1.994V18.43a1.063 1.063 0 00-.012-.204c-.099-.635-.737-1.076-1.425-.985a1.449 1.449 0 00-.163-.014c-.742-.02-1.361.519-1.383 1.203v2.75c.19.628.84 1.04 1.546.982.68.057 1.298-.366 1.437-.982v-.77h-1.036v.499s0 .491-.479.491-.479-.491-.479-.491v-1.054z"/></symbol></svg>